<?xml version="1.0" encoding="UTF-8"?><svg xmlns="http://www.w3.org/2000/svg" version="1.1" width="73px" height="17px" viewBox="400 35 800 370"><g transform="matrix(1.25,0,0,-1.25,0,400)"><path d="m 5,291 108,0 c 0,0 89,7 89,-68 0,-75 -77,-69 -92,-69 l -106,0 0,33 110,0 c 0,0 48,-2 48,36 0,37 -33,34 -50,34 -17,0 -109,0 -109,0 l 0,33" style="fill:#ffffff;" /><path d="m 189,128 c 16,-9 31,-27 31,-57 0,-75 -77,-71 -92,-71 L 0,0 0,33 131,34 c 0,0 49,-0 49,37 0,26 -16,46 -32,57 l 40,0" style="fill:#ffffff;" /><path d="m 317,128 46,0 c 0,-21 0,-51 0,-66 0,-21 13,-28 25,-28 12,0 115,0 127,0 L 518,0 c -12,0 -137,0 -153,0 -15,0 -46,10 -46,53 0,47 0,75 0,75" style="fill:#ffffff;" /><path d="m 518,187 c -11,0 -118,0 -131,0 -12,0 -22,1 -22,16 0,2 0,35 0,38 0,15 8,16 20,16 12,0 120,0 132,0 l 0,33 c -12,0 -150,0 -150,0 0,0 -49,3 -49,-49 0,-18 0,-36 0,-37 0,-47 35,-50 51,-50 15,0 135,0 148,0 l 0,33" style="fill:#ffffff;" /><path d="m 851,291 c -7,-7 -72,-85 -80,-93 -13,-13 -38,-10 -58,-10 -20,0 -23,15 -23,25 0,10 -0,69 -0,78 l -46,0 c 0,-9 0,-91 0,-104 0,-10 4,-33 46,-33 7,0 78,0 79,0 10,0 25,6 43,27 5,6 80,97 93,110 l -53,0" style="fill:#ffffff;" /><path d="m 805,108 c -9,10 -18,20 -49,20 0,0 -20,0 -67,0 -33,0 -45,-24 -45,-37 0,-12 0,-81 0,-90 l 46,0 c 0,9 0,67 0,78 0,10 3,16 23,16 19,0 16,-0 19,-0 19,0 29,-0 39,-10 8,-8 75,-75 83,-84 l 53,0 C 894,14 811,102 805,108" style="fill:#ffffff;" /><path d="m 1194,291 c -7,-7 -72,-85 -80,-93 -13,-13 -38,-10 -58,-10 -20,0 -23,15 -23,25 0,10 -0,69 -0,78 l -46,0 c 0,-9 0,-91 0,-104 0,-10 4,-33 46,-33 7,0 78,0 79,0 10,0 25,6 43,27 5,6 80,97 93,110 l -53,0" style="fill:#ffffff;" /><path d="m 1148,107 c -9,10 -18,20 -49,20 0,0 -20,0 -67,0 -33,0 -45,-24 -45,-37 0,-12 0,-81 0,-90 l 46,0 c 0,9 0,67 0,78 0,10 3,16 23,16 19,0 16,-0 19,-0 19,0 29,-0 39,-10 8,-8 75,-75 83,-84 l 53,0 C 1237,14 1154,102 1148,107" style="fill:#ffffff;" /></g></svg>